


Note : DVD Is Out Now.This Is Original Uncut DVD.Movie Length - 127 Min.



Screens :


 
http://picturestack.com/522/109/lvbLeHaluaLe2HIa.jpeg

 
http://i.imgur.com/qQB7Q.jpg



Extra Screens :


 
http://i.imgur.com/p9UOQ.jpg
 
http://i.imgur.com/Letqf.jpg
 
http://i.imgur.com/VHGSa.jpg
 
http://i.imgur.com/OqzTU.jpg



Media Info :



Format                           : AVI
Format/Info                      : Audio Video Interleave
File size                        : 700 MiB
Duration                         : 2h 26mn
Overall bit rate                 : 669 Kbps

Video ID                         : 0
Format                           : MPEG-4 Visual
Format settings, GMC             : No warppoints
Format settings, Matrix          : Custom
Codec ID                         : XVID
Codec ID/Hint                    : XviD
Duration                         : 2h 26mn
Bit rate                         : 540 Kbps
Width                            : 560 pixels
Height                           : 240 pixels
Display aspect ratio             : 2.35:1
Frame rate                       : 23.976 fps
Color space                      : YUV
Chroma subsampling               : 4:2:0
Bit depth                        : 8 bits
Scan type                        : Progressive
Compression mode                 : Lossy
Bits/(Pixel*Frame)               : 0.167
Stream size                      : 565 MiB (81%)

Audio
ID                               : 1
Format                           : MPEG Audio
Format version                   : Version 1
Format profile                   : Layer 3
Mode                             : Joint stereo
Mode extension                   : MS Stereo
Codec ID                         : 55
Codec ID/Hint                    : MP3
Duration                         : 2h 26mn
Bit rate mode                    : Variable
Bit rate                         : 117 Kbps
Nominal bit rate                 : 128 Kbps
Channel(s)                       : 2 channels
Sampling rate                    : 48.0 KHz
Compression mode                 : Lossy
Stream size                      : 122 MiB (17%)
Alignment                        : Aligned on interleaves
Interleave, duration             : 24 ms (0.58 video frame)
Interleave, preload duration     : 498 ms




